<svg width="25" height="25" viewBox="0 0 25 25" fill="none" xmlns="http://www.w3.org/2000/svg">
<path d="M5.68182 25H2.27273C1.64773 25 1.11288 24.7776 0.668182 24.333C0.223485 23.8883 0.000757576 23.353 0 22.7273V19.3182H2.27273V22.7273H5.68182V25ZM19.3182 25V22.7273H22.7273V19.3182H25V22.7273C25 23.3523 24.7776 23.8875 24.333 24.333C23.8883 24.7784 23.353 25.0008 22.7273 25H19.3182ZM12.5 19.8864C10.2273 19.8864 8.1678 19.214 6.32159 17.8693C4.47538 16.5246 3.12576 14.7348 2.27273 12.5C3.125 10.2652 4.47462 8.47538 6.32159 7.13068C8.16856 5.78598 10.228 5.11364 12.5 5.11364C14.7727 5.11364 16.8326 5.78598 18.6795 7.13068C20.5265 8.47538 21.8758 10.2652 22.7273 12.5C21.875 14.7348 20.5258 16.5246 18.6795 17.8693C16.8333 19.214 14.7735 19.8864 12.5 19.8864ZM12.5 17.6136C14.1667 17.6136 15.6913 17.1591 17.0739 16.25C18.4564 15.3409 19.517 14.0909 20.2557 12.5C19.517 10.9091 18.4564 9.65909 17.0739 8.75C15.6913 7.84091 14.1667 7.38636 12.5 7.38636C10.8333 7.38636 9.30871 7.84091 7.92614 8.75C6.54356 9.65909 5.48295 10.9091 4.74432 12.5C5.48295 14.0909 6.54356 15.3409 7.92614 16.25C9.30871 17.1591 10.8333 17.6136 12.5 17.6136ZM12.5 16.4773C13.5985 16.4773 14.536 16.089 15.3125 15.3125C16.089 14.536 16.4773 13.5985 16.4773 12.5C16.4773 11.4015 16.089 10.464 15.3125 9.6875C14.536 8.91098 13.5985 8.52273 12.5 8.52273C11.4015 8.52273 10.464 8.91098 9.6875 9.6875C8.91098 10.464 8.52273 11.4015 8.52273 12.5C8.52273 13.5985 8.91098 14.536 9.6875 15.3125C10.464 16.089 11.4015 16.4773 12.5 16.4773ZM12.5 14.2045C12.0265 14.2045 11.6242 14.039 11.2932 13.708C10.9621 13.3769 10.7962 12.9742 10.7955 12.5C10.7955 12.0265 10.9614 11.6242 11.2932 11.2932C11.625 10.9621 12.0273 10.7962 12.5 10.7955C12.9735 10.7955 13.3761 10.9614 13.708 11.2932C14.0398 11.625 14.2053 12.0273 14.2045 12.5C14.2045 12.9735 14.039 13.3761 13.708 13.708C13.3769 14.0398 12.9742 14.2053 12.5 14.2045ZM0 5.68182V2.27273C0 1.64773 0.222727 1.11288 0.668182 0.668182C1.11364 0.223485 1.64848 0.000757576 2.27273 0H5.68182V2.27273H2.27273V5.68182H0ZM22.7273 5.68182V2.27273H19.3182V0H22.7273C23.3523 0 23.8875 0.222727 24.333 0.668182C24.7784 1.11364 25.0008 1.64848 25 2.27273V5.68182H22.7273Z" fill="#D8F3DC"/>
</svg>
